<?xml version="1.0" encoding="UTF-8" standalone="no"?>
<!DOCTYPE svg PUBLIC "-//W3C//DTD SVG 1.1//EN"
 "http://www.w3.org/Graphics/SVG/1.1/DTD/svg11.dtd">
<!-- Generated by graphviz version 2.36.0 (20140111.2315)
 -->
<!-- Title: %3 Pages: 1 -->
<svg width="612pt" height="152pt"
 viewBox="0.00 0.00 612.00 152.00" xmlns="http://www.w3.org/2000/svg" xmlns:xlink="http://www.w3.org/1999/xlink">
<g id="graph0" class="graph" transform="scale(1 1) rotate(0) translate(4 148)">
<title>%3</title>
<g id="clust1" class="cluster"><title>cluster_app</title>
<polygon fill="none" stroke="black" points="8,-8 8,-136 96,-136 96,-8 8,-8"/>
<text text-anchor="middle" x="52" y="-120.8" font-family="Times,serif" font-size="14.00">app</text>
</g>
<g id="clust2" class="cluster"><title>cluster_field</title>
<polygon fill="none" stroke="black" points="252,-8 252,-136 340,-136 340,-8 252,-8"/>
<text text-anchor="middle" x="296" y="-120.8" font-family="Times,serif" font-size="14.00">field</text>
</g>
<g id="clust3" class="cluster"><title>cluster_confirm</title>
<polygon fill="none" stroke="black" points="508,-8 508,-136 596,-136 596,-8 508,-8"/>
<text text-anchor="middle" x="552" y="-120.8" font-family="Times,serif" font-size="14.00">confirm</text>
</g>
<!-- current -->
<g id="node1" class="node"><title>current</title>
<ellipse fill="none" stroke="black" stroke-dasharray="5,2" cx="52" cy="-88" rx="35.2956" ry="18"/>
<text text-anchor="middle" x="52" y="-83.8" font-family="Times,serif" font-size="14.00">current</text>
</g>
<!-- instruction -->
<g id="node7" class="node"><title>instruction</title>
<ellipse fill="none" stroke="black" cx="174" cy="-88" rx="47.8668" ry="18"/>
<text text-anchor="middle" x="174" y="-83.8" font-family="Times,serif" font-size="14.00">instruction</text>
</g>
<!-- current&#45;&gt;instruction -->
<g id="edge1" class="edge"><title>current&#45;&gt;instruction</title>
<path fill="none" stroke="black" d="M95.7106,-88C105.407,-88 115.763,-88 125.64,-88"/>
</g>
<!-- bogus1 -->
<g id="node2" class="node"><title>bogus1</title>
<ellipse fill="none" stroke="none" cx="52" cy="-34" rx="35.8147" ry="18"/>
<text text-anchor="middle" x="52" y="-29.8" font-family="Times,serif" font-size="14.00" fill="#fffffe">bogus1</text>
</g>
<!-- field -->
<g id="node3" class="node"><title>field</title>
<ellipse fill="none" stroke="black" stroke-dasharray="5,2" cx="296" cy="-88" rx="27" ry="18"/>
<text text-anchor="middle" x="296" y="-83.8" font-family="Times,serif" font-size="14.00">field</text>
</g>
<!-- disabled -->
<g id="node8" class="node"><title>disabled</title>
<ellipse fill="none" stroke="black" cx="424" cy="-88" rx="39.6558" ry="18"/>
<text text-anchor="middle" x="424" y="-83.8" font-family="Times,serif" font-size="14.00">disabled</text>
</g>
<!-- field&#45;&gt;disabled -->
<g id="edge3" class="edge"><title>field&#45;&gt;disabled</title>
<path fill="none" stroke="black" d="M339.611,-88C353.977,-88 369.928,-88 384.001,-88"/>
</g>
<!-- bogus2 -->
<g id="node4" class="node"><title>bogus2</title>
<ellipse fill="none" stroke="none" cx="296" cy="-34" rx="35.8147" ry="18"/>
<text text-anchor="middle" x="296" y="-29.8" font-family="Times,serif" font-size="14.00" fill="#fffffe">bogus2</text>
</g>
<!-- submission -->
<g id="node10" class="node"><title>submission</title>
<ellipse fill="none" stroke="black" cx="174" cy="-34" rx="49.8223" ry="18"/>
<text text-anchor="middle" x="174" y="-29.8" font-family="Times,serif" font-size="14.00">submission</text>
</g>
<!-- bogus2&#45;&gt;submission -->
<g id="edge7" class="edge"><title>bogus2&#45;&gt;submission</title>
<path fill="none" stroke="black" d="M252.233,-34C243.138,-34 233.466,-34 224.155,-34"/>
</g>
<!-- mode -->
<g id="node5" class="node"><title>mode</title>
<ellipse fill="none" stroke="black" stroke-dasharray="5,2" cx="552" cy="-88" rx="29.5104" ry="18"/>
<text text-anchor="middle" x="552" y="-83.8" font-family="Times,serif" font-size="14.00">mode</text>
</g>
<!-- bogus3 -->
<g id="node6" class="node"><title>bogus3</title>
<ellipse fill="none" stroke="none" cx="552" cy="-34" rx="35.8147" ry="18"/>
<text text-anchor="middle" x="552" y="-29.8" font-family="Times,serif" font-size="14.00" fill="#fffffe">bogus3</text>
</g>
<!-- confirmation -->
<g id="node9" class="node"><title>confirmation</title>
<ellipse fill="none" stroke="black" cx="424" cy="-34" rx="55.1008" ry="18"/>
<text text-anchor="middle" x="424" y="-29.8" font-family="Times,serif" font-size="14.00">confirmation</text>
</g>
<!-- bogus3&#45;&gt;confirmation -->
<g id="edge5" class="edge"><title>bogus3&#45;&gt;confirmation</title>
<path fill="none" stroke="black" d="M508.407,-34C499.133,-34 489.197,-34 479.533,-34"/>
</g>
<!-- instruction&#45;&gt;field -->
<g id="edge2" class="edge"><title>instruction&#45;&gt;field</title>
<path fill="none" stroke="black" d="M222.083,-88C228.57,-88 235.268,-88 241.855,-88"/>
<polygon fill="black" stroke="black" points="242.067,-91.5001 252.067,-88 242.067,-84.5001 242.067,-91.5001"/>
</g>
<!-- disabled&#45;&gt;mode -->
<g id="edge4" class="edge"><title>disabled&#45;&gt;mode</title>
<path fill="none" stroke="black" d="M463.832,-88C474.614,-88 486.508,-88 497.953,-88"/>
<polygon fill="black" stroke="black" points="498.292,-91.5001 508.292,-88 498.292,-84.5001 498.292,-91.5001"/>
</g>
<!-- confirmation&#45;&gt;bogus2 -->
<g id="edge6" class="edge"><title>confirmation&#45;&gt;bogus2</title>
<path fill="none" stroke="black" d="M368.493,-34C359.637,-34 350.552,-34 341.957,-34"/>
<polygon fill="black" stroke="black" points="350,-30.5005 340,-34 350,-37.5005 350,-30.5005"/>
</g>
<!-- submission&#45;&gt;bogus1 -->
<g id="edge8" class="edge"><title>submission&#45;&gt;bogus1</title>
<path fill="none" stroke="black" d="M124.089,-34C115.417,-34 106.426,-34 97.8729,-34"/>
<polygon fill="black" stroke="black" points="106,-30.5005 96,-34 106,-37.5005 106,-30.5005"/>
</g>
</g>
</svg>
